<?xml version="1.0" encoding="utf-8"?><svg xmlns="http://www.w3.org/2000/svg" xmlns:xlink="http://www.w3.org/1999/xlink"><defs><svg viewBox="0 0 512 512" id="icon_archive"><path d="M335.474 115l6.41 22.69h-171.61l6.38-22.69h158.82zM157.98 181.42h196.257l-7.627-27H165.57l-7.59 27zm-27.81 0L156.163 90H355.94l26.114 91.42h41.385L385.552 50H126.57L88.596 181.42h41.575zm-79.764 30.812L71.58 321.5h368.84l21.174-109.268H50.406zm237.063 62.393h-62.94c-7.246 0-13.124-5.876-13.124-13.125s5.878-13.125 13.125-13.125h62.94c7.246 0 13.123 5.876 13.123 13.125s-5.877 13.125-13.124 13.125zM50.405 351.732L73.58 462h364.84l23.174-110.268H50.406zm237.063 62.393h-62.94c-7.246 0-13.124-5.875-13.124-13.125 0-7.248 5.878-13.125 13.125-13.125h62.94c7.246 0 13.123 5.877 13.123 13.125 0 7.25-5.877 13.125-13.124 13.125z"/></svg><svg viewBox="0 0 32 32" id="icon_arrow-left"><path d="M28 14H8.8l4.62-4.62c.394-.394.58-.864.58-1.38 0-.984-.813-2-2-2-.53 0-.994.193-1.38.58l-7.958 7.958C2.334 14.866 2 15.27 2 16s.28 1.08.646 1.447l7.974 7.973c.386.387.85.58 1.38.58 1.188 0 2-1.016 2-2 0-.516-.186-.986-.58-1.38L8.8 18H28a2 2 0 0 0 0-4z"/></svg><svg viewBox="0 0 31 31" id="icon_edit"><path d="M6.07 24.97c2.31-.48 5.64-1.4 6.88-1.75L23.67 12.5 18.5 7.33 7.79 18.04c-.35 1.25-1.24 4.55-1.72 6.93M27.5 8.67l.17-.17-5.17-5.17-.17.17 5.17 5.17M5.43 27.08c-1.13 0-1.66-.77-1.46-1.84C4.52 22.27 6 17 6 17L18.5 4.5l8 8L14 25s-5.03 1.45-7.99 2.02c-.2.04-.4.06-.58.06zM27.5 11.5l-8-8 3-3 8 8-3 3z"/><path d="M24 20h2v8c0 1.66-1.34 3-3 3H3c-1.66 0-3-1.34-3-3V3c0-1.66 1.34-3 3-3h14v2H3c-.55 0-1 .45-1 1v25c0 .55.45 1 1 1h20c.55 0 1-.45 1-1v-8"/><path d="M5 26l1-5 4 4-5 1zM14.71 17.71l-1.42-1.42 8-8 1.42 1.42-8 8z"/></svg><svg viewBox="0 0 15 15" id="icon_plus"><path d="M15 9H9v6H6V9H0V6h6V0h3v6h6v3z"/></svg><svg viewBox="0 0 512 512" id="icon_settings"><path d="M256 153.5c56.5 0 102.5 46 102.5 102.5s-46 102.5-102.5 102.5-102.5-46-102.5-102.5 46-102.5 102.5-102.5m0-22c-68.6 0-124.5 55.8-124.5 124.5S187.4 380.5 256 380.5 380.5 324.6 380.5 256 324.6 131.5 256 131.5z"/><path d="M278.4 22l10.1 53.8c1.5 8.1 7.5 14.7 15.4 17.1 11.5 3.4 22.5 7.9 32.5 13.3 3.3 1.8 6.9 2.6 10.4 2.6 4.4 0 8.7-1.3 12.4-3.8L405 73.6l33.2 33.2-31.2 45.8c-4.7 6.8-5.1 15.6-1.2 22.9 5.3 9.8 9.7 20.4 13 31.6 2.4 7.9 8.9 13.8 17 15.3l54.1 10.2v46.9l-54.1 10.1c-8.1 1.5-14.7 7.4-17 15.3-3.4 11.4-7.9 22.2-13.3 32.2-3.9 7.3-3.5 16.1 1.2 22.9l31 45.3-33.2 33.1-45.5-31.2c-3.7-2.6-8.1-3.8-12.4-3.8-3.6 0-7.1.9-10.4 2.6-10 5.4-20.9 9.8-32.2 13.1-7.9 2.3-13.9 8.9-15.4 17.1L278.5 490h-46.9l-10.2-54.4c-1.5-8-7.3-14.6-15.2-17-10.9-3.4-21.3-7.7-30.9-12.9-3.3-1.8-6.9-2.6-10.5-2.6-4.4 0-8.7 1.3-12.4 3.8l-44.9 30.7-33.2-33.2 30.7-44.9c4.6-6.8 5.1-15.6 1.2-22.9-5.4-9.9-9.8-20.6-13.1-31.8-2.4-7.9-8.9-13.8-17-15.3L22 279.4v-46.9l54.1-10.1c8.1-1.5 14.6-7.4 17-15.3 3.3-11 7.6-21.5 12.8-31.2 3.9-7.2 3.4-16-1.2-22.8l-31.1-45.5 33.2-33.2 45.2 30.9c3.7 2.6 8.1 3.8 12.4 3.8 3.6 0 7.2-.9 10.5-2.7 9.7-5.3 20.2-9.7 31.2-13 7.8-2.4 13.7-8.9 15.2-17L231.5 22h46.9m7.7-22h-62.2c-5.9 0-11.5 4.7-12.5 10.4l-11.6 62c-12.3 3.8-24.2 8.7-35.3 14.7L113 51.8c-2.1-1.4-4.6-2.1-7.1-2.1-3.4 0-6.8 1.2-9.1 3.6l-44 44c-4.1 4.1-4.8 11.4-1.5 16.2l35.5 51.8c-6 11.1-10.8 23-14.5 35.3l-61.7 11.6C4.7 213.4 0 219 0 224.8V287c0 5.9 4.7 11.5 10.4 12.5L72 311.1c3.8 12.6 8.7 24.7 14.8 36l-35.1 51.3c-3.3 4.8-2.6 12.1 1.5 16.2l44 44c2.4 2.4 5.8 3.6 9.1 3.6 2.5 0 5-.7 7.1-2.1l51.3-35.1c11 6 22.7 10.8 34.9 14.6l11.6 62c1.1 5.7 6.7 10.4 12.5 10.4h62.2c5.9 0 11.5-4.7 12.5-10.4l11.5-61.4c12.7-3.7 24.9-8.7 36.4-14.8l51.9 35.5c2.1 1.4 4.6 2.1 7.1 2.1 3.4 0 6.8-1.2 9.1-3.6l44-44c4.1-4.1 4.8-11.4 1.5-16.2l-35.3-51.6c6.2-11.5 11.3-23.7 15.1-36.4l61.6-11.6c5.7-1.1 10.4-6.7 10.4-12.5v-62.2c0-5.9-4.7-11.5-10.4-12.5l-61.7-11.6c-3.7-12.5-8.7-24.4-14.7-35.7l35.7-52.2c3.3-4.8 2.6-12.1-1.5-16.2l-44-44c-2.4-2.4-5.8-3.6-9.1-3.6-2.5 0-5 .7-7.1 2.1l-52.2 35.7c-11.6-6.2-23.9-11.3-36.8-15l-11.5-61.4C297.6 4.7 292 0 286.1 0z"/></svg><svg viewBox="0 0 29 32" id="icon_trash-can"><path d="M26.5 11v17c0 2.21-1.79 4-4 4h-16c-2.21 0-4-1.79-4-4V11c-1.1 0-2-.9-2-2V6.82h.02C.62 5.25 1.9 4 3.5 4h3V3c0-1.66 1.34-3 3-3h10c1.66 0 3 1.34 3 3v1h3c1.59 0 2.88 1.25 2.98 2.82h.02V9c0 1.1-.9 2-2 2zm-22 17c0 1.1.9 2 2 2h16c1.1 0 2-.9 2-2V11h-20v17zm16-25c0-.55-.45-1-1-1h-10c-.55 0-1 .45-1 1v1h12V3zm6 5V7c0-.55-.45-1-1-1h-22c-.55 0-1 .45-1 1v2h24V8zm-5 20h-2c-.55 0-1-.44-1-.99v-13c0-.56.45-1.01 1-1.01h2c.55 0 1 .45 1 1.01v13c0 .55-.45.99-1 .99zm0-14h-2v13h2V14zm-6 14h-2c-.55 0-1-.44-1-.99v-13c0-.56.45-1.01 1-1.01h2c.55 0 1 .45 1 1.01v13c0 .55-.45.99-1 .99zm0-14h-2v13h2V14zm-6 14h-2c-.55 0-1-.44-1-.99v-13c0-.56.45-1.01 1-1.01h2c.55 0 1 .45 1 1.01v13c0 .55-.45.99-1 .99zm0-14h-2v13h2V14z"/></svg></defs></svg>