<svg xmlns="http://www.w3.org/2000/svg" viewBox="0 0 88 74"><path fillRule="evenodd" d="M 84 70C 84 70 84 4 84 4 84 4 4 4 4 4 4 4 4 70 4 70 4 70 84 70 84 70M 88 74C 88 74 0 74 0 74 0 74 0 0 0 0 0 0 88 0 88 0 88 0 88 74 88 74 88 74 88 74 88 74Z" fill="currentColor"/><rect x="8" y="8" width="72" height="58" fill="currentColor"/><path fillRule="evenodd" d="M 16 19C 16 19 16 16 16 16 16 16 52 16 52 16 52 16 52 19 52 19 52 19 16 19 16 19ZM 44 25C 44 25 16 25 16 25 16 25 16 22 16 22 16 22 44 22 44 22 44 22 44 25 44 25ZM 48 31C 48 31 16 31 16 31 16 31 16 28 16 28 16 28 48 28 48 28 48 28 48 31 48 31ZM 38 37C 38 37 16 37 16 37 16 37 16 34 16 34 16 34 38 34 38 34 38 34 38 37 38 37Z" fill="#ffffff"/></svg>
