<svg xmlns="http://www.w3.org/2000/svg" viewBox="0 0 88 74"><path fillRule="evenodd" d="M 84 70C 84 70 84 4 84 4 84 4 4 4 4 4 4 4 4 70 4 70 4 70 84 70 84 70M 88 74C 88 74 0 74 0 74 0 74 0-0 0-0 0-0 88-0 88-0 88-0 88 74 88 74 88 74 88 74 88 74Z" fill="currentColor"/><path fillRule="evenodd" d="M 15 20C 15 20 15 15 15 15 15 15 53 15 53 15 53 15 53 20 53 20 53 20 15 20 15 20ZM 45 26C 45 26 15 26 15 26 15 26 15 21 15 21 15 21 45 21 45 21 45 21 45 26 45 26ZM 49 32C 49 32 15 32 15 32 15 32 15 27 15 27 15 27 49 27 49 27 49 27 49 32 49 32ZM 41 38C 41 38 15 38 15 38 15 38 15 33 15 33 15 33 41 33 41 33 41 33 41 38 41 38Z" fill="currentColor"/></svg>
