<svg xmlns="http://www.w3.org/2000/svg" viewBox="0 0 88 74"><path fillRule="evenodd" d="M 84 70C 84 70 84 4 84 4 84 4 4 4 4 4 4 4 4 70 4 70 4 70 84 70 84 70M 88 74C 88 74-0 74-0 74-0 74-0 0-0 0-0 0 88 0 88 0 88 0 88 74 88 74 88 74 88 74 88 74Z" fill="currentColor"/><path fillRule="evenodd" d="M 11 66C 11 66 8 66 8 66 8 66 8 66 8 66 8 66 8 66 8 66 8 66 8 66 8 66 8 66 7.99 64.85 7.99 64.85 7.99 64.85 8 64.84 8 64.84 8 64.84 8 62 8 62 8 62 8 62 8 62 8 62 8 8 8 8 8 8 51 8 51 8 51 8 51 8 51 8 51 8 54 8 54 8 54 8 55 8 55 8 55 8 57 8 57 8 57 8 58 8 58 8 58 8 61 8 61 8 61 8 11 66 11 66Z" fill="currentColor"/><path fillRule="evenodd" d="M 60 8C 60 8 64 8 64 8 64 8 14 66 14 66 14 66 10 66 10 66 10 66 60 8 60 8Z" fill="currentColor" opacity="0.95"/><path fillRule="evenodd" d="M 63 8C 63 8 67 8 67 8 67 8 17 66 17 66 17 66 13 66 13 66 13 66 63 8 63 8Z" fill="currentColor" opacity="0.90"/><path fillRule="evenodd" d="M 66 8C 66 8 70 8 70 8 70 8 20 66 20 66 20 66 16 66 16 66 16 66 66 8 66 8Z" fill="currentColor" opacity="0.85"/><path fillRule="evenodd" d="M 69 8C 69 8 73 8 73 8 73 8 23 66 23 66 23 66 19 66 19 66 19 66 69 8 69 8Z" fill="currentColor" opacity="0.80"/><path fillRule="evenodd" d="M 72 8C 72 8 76 8 76 8 76 8 26 66 26 66 26 66 22 66 22 66 22 66 72 8 72 8Z" fill="currentColor" opacity="0.75"/><path fillRule="evenodd" d="M 75 8C 75 8 79 8 79 8 79 8 29 66 29 66 29 66 25 66 25 66 25 66 75 8 75 8Z" fill="currentColor" opacity="0.70"/><path fillRule="evenodd" d="M 80 10.4C 80 10.4 32 66 32 66 32 66 28 66 28 66 28 66 78 8 78 8 78 8 80 8 80 8 80 8 80 10.4 80 10.4Z" fill="currentColor" opacity="0.65"/><path fillRule="evenodd" d="M 80 14C 80 14 35 66 35 66 35 66 31 66 31 66 31 66 80 9.2 80 9.2 80 9.2 80 14 80 14Z" fill="currentColor" opacity="0.60"/><path fillRule="evenodd" d="M 80 17.6C 80 17.6 38 66 38 66 38 66 34 66 34 66 34 66 80 12.8 80 12.8 80 12.8 80 17.6 80 17.6Z" fill="currentColor" opacity="0.55"/><path fillRule="evenodd" d="M 80 21.2C 80 21.2 41 66 41 66 41 66 37 66 37 66 37 66 80 16.4 80 16.4 80 16.4 80 21.2 80 21.2Z" fill="currentColor" opacity="0.50"/><path fillRule="evenodd" d="M 80 24.8C 80 24.8 44 66 44 66 44 66 40 66 40 66 40 66 80 20 80 20 80 20 80 24.8 80 24.8Z" fill="currentColor" opacity="0.45"/><path fillRule="evenodd" d="M 80 28.4C 80 28.4 47 66 47 66 47 66 43 66 43 66 43 66 80 23.6 80 23.6 80 23.6 80 28.4 80 28.4Z" fill="currentColor" opacity="0.40"/><path fillRule="evenodd" d="M 80 32C 80 32 50 66 50 66 50 66 46 66 46 66 46 66 80 27.2 80 27.2 80 27.2 80 32 80 32Z" fill="currentColor" opacity="0.35"/><path fillRule="evenodd" d="M 80 35.6C 80 35.6 53 66 53 66 53 66 49 66 49 66 49 66 80 30.8 80 30.8 80 30.8 80 35.6 80 35.6Z" fill="currentColor" opacity="0.30"/><path fillRule="evenodd" d="M 80 39.2C 80 39.2 56 66 56 66 56 66 52 66 52 66 52 66 80 34.4 80 34.4 80 34.4 80 39.2 80 39.2Z" fill="currentColor" opacity="0.25"/><path fillRule="evenodd" d="M 80 42.8C 80 42.8 59 66 59 66 59 66 55 66 55 66 55 66 80 38 80 38 80 38 80 42.8 80 42.8Z" fill="currentColor" opacity="0.20"/><path fillRule="evenodd" d="M 80 46.4C 80 46.4 62 66 62 66 62 66 58 66 58 66 58 66 80 41.6 80 41.6 80 41.6 80 46.4 80 46.4Z" fill="currentColor" opacity="0.15"/><path fillRule="evenodd" d="M 80 50C 80 50 65 66 65 66 65 66 61 66 61 66 61 66 80 45.2 80 45.2 80 45.2 80 50 80 50Z" fill="currentColor" opacity="0.10"/><path fillRule="evenodd" d="M 80 66C 80 66 64 66 64 66 64 66 80 48.8 80 48.8 80 48.8 80 66 80 66Z" fill="currentColor" opacity="0.05"/><path fillRule="evenodd" d="M 16 19C 16 19 16 16 16 16 16 16 52 16 52 16 52 16 52 19 52 19 52 19 16 19 16 19ZM 44 25C 44 25 16 25 16 25 16 25 16 22 16 22 16 22 44 22 44 22 44 22 44 25 44 25ZM 48 31C 48 31 16 31 16 31 16 31 16 28 16 28 16 28 48 28 48 28 48 28 48 31 48 31ZM 38 37C 38 37 16 37 16 37 16 37 16 34 16 34 16 34 38 34 38 34 38 34 38 37 38 37Z" fill="#ffffff"/></svg>
