<svg xmlns="http://www.w3.org/2000/svg" width="257" height="152"><path d="M253 148V4H4v144h249m4 4H0V0h257v152z" fill="#DBF1F9"/><path fill="#DBF1F9" d="M15 15h116v122H15z"/><path d="M82.53 91.1L69.56 78.13V60.75h7.88v14.12L88.1 85.53l-5.57 5.57zM73.5 45C56.1 45 42 59.1 42 76.5S56.1 108 73.5 108 105 93.9 105 76.5 90.9 45 73.5 45zm0 55.13c-13.05 0-23.63-10.58-23.63-23.63 0-13.05 10.58-23.63 23.63-23.63 13.05 0 23.63 10.58 23.63 23.63 0 13.05-10.58 23.63-23.63 23.63z" fill="#FFF"/><path fill="#DBF1F9" d="M147 88h95v5h-95zM147 15h95v5h-95zM147 25h95v5h-95zM147 35h95v5h-95zM147 98h73v5h-73z"/><path fill="#F99E6E" d="M147 120h95v17h-95z"/></svg>
