<svg xmlns="http://www.w3.org/2000/svg" viewBox="0 0 261 156">
  <path fill="none" stroke="#dcf1fa" stroke-width="4" d="M2 2h257v152H2z"/>
  <path fill="#dcf1fa" d="M17 17h116v122H17z"/>
  <path d="M100.816 42.59a3.993 3.993 0 00-3.954 3.29l-.852 4.58H43.689l2.233 24.32a3.956 3.956 0 003.09 3.54l41.129 10.15v2.67a10.511 10.511 0 00-1.946-.2 9.921 9.921 0 1010.053 9.92v-.44a2.952 2.952 0 000-.42l-.14-14.66a3.985 3.985 0 00-3.031-3.81L53.746 71.32 52.571 58.4h42.04l-2.527 14.57 7.92 1.29 4.043-23.76h3.018l.227-7.91h-6.476zm-9.39 58.27a3.161 3.161 0 01-3.19 3.14H88.2a3.141 3.141 0 113.226-3.14zm-33.225-9.92h-.021a10 10 0 00-10.054 9.9 9.782 9.782 0 002.935 7.02 10.051 10.051 0 007.1 2.92h.024a9.921 9.921 0 10.015-19.84zm0 13.06v-.04a3.141 3.141 0 113.13-3.2v.1A3.164 3.164 0 0158.2 104z" fill="#fff" fill-rule="evenodd"/>
  <path fill="#dcf1fa" d="M149 90h95v5h-95zM149 17h95v5h-95zM149 27h95v5h-95zM149 37h95v5h-95zM149 100h73v5h-73z"/>
  <path fill="#fa9f6f" d="M149 122h95v17h-95z"/>
</svg>