<svg xmlns="http://www.w3.org/2000/svg" viewBox="0 0 256 153"><path fill="#DBF1F9" d="M15 15h51v61H15zM150 72V19h-44v53h44m4 4h-52V15h52v61zM237 72V19h-43v53h43m4 4h-51V15h51v61z"/><path d="M48.01 84.18l-9.83 9.83-.18-.18-.18.18-5.83-5.83 3.19-3.19L38 87.8l6.82-6.81 3.19 3.19z" fill="#F99E6E"/><path d="M41.96 50.62v-1.23c0-.82.17-1.49.52-1.99.35-.51 1.18-1.25 2.49-2.22 1.92-1.36 3.22-2.59 3.9-3.69.69-1.09 1.03-2.39 1.03-3.89 0-2.26-.83-4.06-2.49-5.42-1.67-1.35-3.9-2.03-6.72-2.03-3.42 0-6.65.86-9.7 2.57l2.23 4.49c2.63-1.34 4.97-2.01 7.02-2.01 1.17 0 2.09.23 2.75.69.65.47.98 1.15.98 2.03 0 .8-.23 1.51-.69 2.16-.46.64-1.4 1.47-2.84 2.5-1.49 1.09-2.51 2.13-3.07 3.1-.56.97-.84 2.11-.84 3.42v1.52h5.43zm-5.15 9.59c.63.6 1.52.91 2.67.91 1.12 0 1.99-.31 2.62-.93.63-.63.95-1.48.95-2.56 0-1.12-.31-1.98-.94-2.58-.62-.6-1.5-.9-2.63-.9-1.18 0-2.07.29-2.69.88-.61.59-.92 1.45-.92 2.6 0 1.11.31 1.97.94 2.58z" fill="#FFF"/><path d="M129.96 50.62v-1.23c0-.82.17-1.49.52-1.99.35-.51 1.18-1.25 2.5-2.22 1.91-1.36 3.21-2.59 3.89-3.69.69-1.09 1.03-2.39 1.03-3.89 0-2.26-.83-4.06-2.49-5.42-1.67-1.35-3.9-2.03-6.72-2.03-3.42 0-6.65.86-9.7 2.57l2.23 4.49c2.63-1.34 4.97-2.01 7.02-2.01 1.17 0 2.09.23 2.75.69.65.47.98 1.15.98 2.03 0 .8-.23 1.51-.69 2.16-.46.64-1.4 1.47-2.84 2.5-1.49 1.09-2.51 2.13-3.07 3.1-.56.97-.84 2.11-.84 3.42v1.52h5.43zm-5.15 9.59c.63.6 1.52.91 2.67.91 1.12 0 1.99-.31 2.62-.93.63-.63.95-1.48.95-2.56 0-1.12-.31-1.98-.94-2.58-.62-.6-1.5-.9-2.63-.9-1.18 0-2.07.29-2.69.88-.61.59-.92 1.45-.92 2.6 0 1.11.31 1.97.94 2.58zM216.96 50.62v-1.23c0-.82.17-1.49.52-1.99.35-.51 1.18-1.25 2.5-2.22 1.91-1.36 3.21-2.59 3.89-3.69.68-1.09 1.03-2.39 1.03-3.89 0-2.26-.83-4.06-2.49-5.42-1.67-1.35-3.9-2.03-6.72-2.03-3.42 0-6.65.86-9.7 2.57l2.23 4.49c2.63-1.34 4.97-2.01 7.02-2.01 1.17 0 2.09.23 2.75.69.65.47.98 1.15.98 2.03 0 .8-.23 1.51-.69 2.16-.46.64-1.4 1.47-2.84 2.5-1.49 1.09-2.51 2.13-3.07 3.1-.56.97-.84 2.11-.84 3.42v1.52h5.43zm-5.15 9.59c.63.6 1.52.91 2.67.91 1.12 0 1.99-.31 2.62-.93.63-.63.95-1.48.95-2.56 0-1.12-.31-1.98-.94-2.58-.62-.6-1.5-.9-2.63-.9-1.18 0-2.07.29-2.69.88-.61.59-.92 1.45-.92 2.6 0 1.11.31 1.97.94 2.58zM77 103V4H4v99h73m4 4H0V0h81v107z" fill="#DBF1F9"/><path d="M164 103V4H92v99h72m4 4H88V0h80v107zM252 103V4h-73v99h73m4 4h-81V0h81v107z" fill="#DBF1F9"/><path fill="#F99F6F" d="M0 115h256v38H0z"/><path d="M139 142.75l-2.25 2.25-4.76-4.76a9.383 9.383 0 0 1-5.49 1.76c-5.25 0-9.5-4.25-9.5-9.5s4.25-9.5 9.5-9.5 9.5 4.25 9.5 9.5c0 2.05-.65 3.94-1.76 5.49l4.76 4.76zM126.5 126a6.5 6.5 0 1 0 0 13 6.5 6.5 0 0 0 0-13z" fill="#FFF"/></svg>
