<?xml version="1.0" encoding="utf-8"?>
<svg xmlns="http://www.w3.org/2000/svg"
	xmlns:xlink="http://www.w3.org/1999/xlink"
	width="256px" height="103px" viewBox="0 0 256 103">
<path fillRule="evenodd" d="M 50 99C 50 99 50 4 50 4 50 4 4 4 4 4 4 4 4 99 4 99 4 99 50 99 50 99M 54 103C 54 103 0 103 0 103 0 103 0-0 0-0 0-0 54-0 54-0 54-0 54 103 54 103 54 103 54 103 54 103Z" fill="rgb(219,241,249)"/><rect x="10" y="57" width="34" height="5" fill="rgb(219,241,249)"/><path fillRule="evenodd" d="M 14 72C 14 72 14 67 14 67 14 67 40 67 40 67 40 67 40 72 40 72 40 72 14 72 14 72ZM 35 82C 35 82 19 82 19 82 19 82 19 77 19 77 19 77 35 77 35 77 35 77 35 82 35 82Z" fill="rgb(219,241,249)"/><path fillRule="evenodd" d="M 101 99C 101 99 101 4 101 4 101 4 54 4 54 4 54 4 54 99 54 99 54 99 101 99 101 99M 105 103C 105 103 50 103 50 103 50 103 50-0 50-0 50-0 105-0 105-0 105-0 105 103 105 103 105 103 105 103 105 103Z" fill="rgb(219,241,249)"/><rect x="60" y="57" width="35" height="5" fill="rgb(219,241,249)"/><path fillRule="evenodd" d="M 64 72C 64 72 64 67 64 67 64 67 91 67 91 67 91 67 91 72 91 72 91 72 64 72 64 72ZM 86 82C 86 82 69 82 69 82 69 82 69 77 69 77 69 77 86 77 86 77 86 77 86 82 86 82Z" fill="rgb(219,241,249)"/><path fillRule="evenodd" d="M 151 99C 151 99 151 4 151 4 151 4 105 4 105 4 105 4 105 99 105 99 105 99 151 99 151 99M 155 103C 155 103 101 103 101 103 101 103 101-0 101-0 101-0 155-0 155-0 155-0 155 103 155 103 155 103 155 103 155 103Z" fill="rgb(219,241,249)"/><rect x="111" y="57" width="34" height="5" fill="rgb(219,241,249)"/><path fillRule="evenodd" d="M 115 72C 115 72 115 67 115 67 115 67 141 67 141 67 141 67 141 72 141 72 141 72 115 72 115 72ZM 136 82C 136 82 120 82 120 82 120 82 120 77 120 77 120 77 136 77 136 77 136 77 136 82 136 82Z" fill="rgb(219,241,249)"/><path fillRule="evenodd" d="M 202 99C 202 99 202 4 202 4 202 4 155 4 155 4 155 4 155 99 155 99 155 99 202 99 202 99M 206 103C 206 103 151 103 151 103 151 103 151-0 151-0 151-0 206-0 206-0 206-0 206 103 206 103 206 103 206 103 206 103Z" fill="rgb(219,241,249)"/><rect x="161" y="57" width="35" height="5" fill="rgb(219,241,249)"/><path fillRule="evenodd" d="M 165 72C 165 72 165 67 165 67 165 67 192 67 192 67 192 67 192 72 192 72 192 72 165 72 165 72ZM 187 82C 187 82 170 82 170 82 170 82 170 77 170 77 170 77 187 77 187 77 187 77 187 82 187 82Z" fill="rgb(219,241,249)"/><path fillRule="evenodd" d="M 252 99C 252 99 252 4 252 4 252 4 206 4 206 4 206 4 206 99 206 99 206 99 252 99 252 99M 256 103C 256 103 202 103 202 103 202 103 202-0 202-0 202-0 256-0 256-0 256-0 256 103 256 103 256 103 256 103 256 103Z" fill="rgb(219,241,249)"/><rect x="212" y="57" width="34" height="5" fill="rgb(219,241,249)"/><path fillRule="evenodd" d="M 216 72C 216 72 216 67 216 67 216 67 242 67 242 67 242 67 242 72 242 72 242 72 216 72 216 72ZM 237 82C 237 82 221 82 221 82 221 82 221 77 221 77 221 77 237 77 237 77 237 77 237 82 237 82Z" fill="rgb(219,241,249)"/><circle cx="27.00" cy="30.00" r="18.00" fill="rgb(249,159,111)"/><path fillRule="evenodd" d="M 27 38.35C 31.61 38.35 35.35 34.61 35.35 30 35.35 25.39 31.61 21.65 27 21.65 22.39 21.65 18.65 25.39 18.65 30 18.65 34.61 22.39 38.35 27 38.35M 27 42.35C 20.18 42.35 14.65 36.82 14.65 30 14.65 23.18 20.18 17.65 27 17.65 33.82 17.65 39.35 23.18 39.35 30 39.35 36.82 33.82 42.35 27 42.35 27 42.35 27 42.35 27 42.35Z" fill="rgb(255,255,255)"/><circle cx="77.00" cy="30.00" r="18.00" fill="rgb(249,159,111)"/><path fillRule="evenodd" d="M 77 38.35C 81.61 38.35 85.35 34.61 85.35 30 85.35 25.39 81.61 21.65 77 21.65 72.39 21.65 68.65 25.39 68.65 30 68.65 34.61 72.39 38.35 77 38.35M 77 42.35C 70.18 42.35 64.65 36.82 64.65 30 64.65 23.18 70.18 17.65 77 17.65 83.82 17.65 89.35 23.18 89.35 30 89.35 36.82 83.82 42.35 77 42.35 77 42.35 77 42.35 77 42.35Z" fill="rgb(255,255,255)"/><circle cx="128.00" cy="30.00" r="18.00" fill="rgb(249,159,111)"/><path fillRule="evenodd" d="M 128 38.35C 132.61 38.35 136.35 34.61 136.35 30 136.35 25.39 132.61 21.65 128 21.65 123.39 21.65 119.65 25.39 119.65 30 119.65 34.61 123.39 38.35 128 38.35M 128 42.35C 121.18 42.35 115.65 36.82 115.65 30 115.65 23.18 121.18 17.65 128 17.65 134.82 17.65 140.35 23.18 140.35 30 140.35 36.82 134.82 42.35 128 42.35 128 42.35 128 42.35 128 42.35Z" fill="rgb(255,255,255)"/><circle cx="178.00" cy="30.00" r="18.00" fill="rgb(249,159,111)"/><path fillRule="evenodd" d="M 178 38.35C 182.61 38.35 186.35 34.61 186.35 30 186.35 25.39 182.61 21.65 178 21.65 173.39 21.65 169.65 25.39 169.65 30 169.65 34.61 173.39 38.35 178 38.35M 178 42.35C 171.18 42.35 165.65 36.82 165.65 30 165.65 23.18 171.18 17.65 178 17.65 184.82 17.65 190.35 23.18 190.35 30 190.35 36.82 184.82 42.35 178 42.35 178 42.35 178 42.35 178 42.35Z" fill="rgb(255,255,255)"/><circle cx="229.00" cy="30.00" r="18.00" fill="rgb(249,159,111)"/><path fillRule="evenodd" d="M 229 38.35C 233.61 38.35 237.35 34.61 237.35 30 237.35 25.39 233.61 21.65 229 21.65 224.39 21.65 220.65 25.39 220.65 30 220.65 34.61 224.39 38.35 229 38.35M 229 42.35C 222.18 42.35 216.65 36.82 216.65 30 216.65 23.18 222.18 17.65 229 17.65 235.82 17.65 241.35 23.18 241.35 30 241.35 36.82 235.82 42.35 229 42.35 229 42.35 229 42.35 229 42.35Z" fill="rgb(255,255,255)"/></svg>