<svg xmlns="http://www.w3.org/2000/svg" viewBox="0 0 256 152"><path class="cls-1" d="M1317,2149V1997h256v152H1317Zm252-148H1321v144h248V2001Zm-11,65h0v19H1332v-19h226Zm0,43H1332v-19h226v19Zm0,24H1332v-19h226v19Zm-226-121h226v49H1332v-49Zm4,45h218v-41H1336v41Zm8-23h181v5H1344v-5Zm0-10h49v5h-49v-5Zm161,25H1344v-5h161v5Z" transform="translate(-1317 -1997)" fill="#dcf1fa" fill-rule="evenodd"/><rect fill="#fa9f6f" x="228" y="22" width="6" height="5"/><rect fill="#fff" x="27" y="76" width="59" height="5"/><rect fill="#fff" x="27" y="100" width="79" height="5"/><rect fill="#fff" x="27" y="124" width="49" height="5"/><rect fill="#fa9f6f" x="228" y="76" width="6" height="5"/><rect fill="#fa9f6f" x="228" y="100" width="6" height="5"/><rect fill="#fa9f6f" x="228" y="124" width="6" height="5"/></svg>
