<svg id="instagram_component" xmlns="http://www.w3.org/2000/svg" width="262" height="156"><defs><style>.cls-2{stroke:#dcf1fa;stroke-width:4px;fill:#dcf1fa}</style></defs><path id="Rectangle_797_copy_67" data-name="Rectangle 797 copy 67" stroke="#dcf1fa" stroke-width="4" fill="none" d="M2 2h258v152H2z"/><path id="Rectangle_797_copy_69" data-name="Rectangle 797 copy 69" class="cls-2" d="M75 87h53v52H75z"/><path id="Rectangle_797_copy_70" data-name="Rectangle 797 copy 70" class="cls-2" d="M133 87h53v52h-53z"/><path id="Rectangle_797_copy_71" data-name="Rectangle 797 copy 71" class="cls-2" d="M191 87h53v52h-53z"/><path fill="#dcf1fa" d="M18 87h52v52H18z"/><path d="M636.748 2016.01h-32.5a10.247 10.247 0 0 0-10.238 10.24v32.52a10.247 10.247 0 0 0 10.238 10.24h32.5a10.248 10.248 0 0 0 10.237-10.24v-32.52a10.248 10.248 0 0 0-10.237-10.24zm2.941 6.11h1.169v8.98l-8.951.03-.03-8.99zm-26.748 14.95a9.315 9.315 0 1 1-1.764 5.44 9.318 9.318 0 0 1 1.764-5.44zm28.881 21.7a5.077 5.077 0 0 1-5.076 5.07h-32.5a5.075 5.075 0 0 1-5.077-5.07v-21.7h7.908a14.494 14.494 0 1 0 26.833 0h7.911v21.7z" transform="translate(-490 -1996)" fill="#fa9f6f" fill-rule="evenodd"/></svg>