<svg xmlns="http://www.w3.org/2000/svg" viewBox="0 0 1178 275">
  <path fill="#f9f9f9" stroke="#e3e3e3" stroke-dasharray="4 2" d="M.5.5h1177v274H.5z"/>
  <path fill="#fff" d="M10.5 10.5h263v254h-263z"/>
  <path d="M175.7 100.52h-6a3.228 3.228 0 00-3.2 2.65l-1.172 6.3h-55.607a3.215 3.215 0 00-3.252 3.19c0 .08 0 .15.008.23l2.056 22.83a3.2 3.2 0 002.512 2.85l47.826 11.81v5.82a10.416 10.416 0 00-3.54-.65 9.966 9.966 0 1010.118 9.96v-.58a3.011 3.011 0 000-.38l-.16-16.69a3.206 3.206 0 00-2.444-3.06l-47.963-11.85-1.553-17.1h50.879l-2.916 16.83a3.2 3.2 0 002.648 3.69h.55a3.229 3.229 0 003.2-2.65l4.568-26.86h3.266a3.187 3.187 0 00.176-6.34zm-20.373 68.57a3.655 3.655 0 11.046 0h-.046zm-34.145-13.54a9.966 9.966 0 1010.095 9.99v-.03a10.046 10.046 0 00-10.091-9.96zm0 13.5a3.581 3.581 0 113.563-3.65v.11a3.6 3.6 0 01-3.563 3.58v-.04z" fill-rule="evenodd" fill="#fa9f6f"/>
  <rect fill="#d4d4d4" x="298.5" y="230.5" width="63" height="19" rx="2" ry="2"/>
  <rect fill="#d4d4d4" x="298.5" y="53.5" width="753" height="9" rx="2" ry="2"/>
  <rect fill="#d4d4d4" x="298.5" y="72.5" width="763" height="9" rx="2" ry="2"/>
  <rect fill="#d4d4d4" x="298.5" y="91.5" width="783" height="9" rx="2" ry="2"/>
  <rect fill="#d4d4d4" x="298.5" y="110.5" width="743" height="9" rx="2" ry="2"/>
  <rect fill="#d4d4d4" x="298.5" y="129.5" width="713" height="9" rx="2" ry="2"/>
  <rect fill="#d4d4d4" x="298.5" y="148.5" width="733" height="9" rx="2" ry="2"/>
  <rect x="1025.5" y="226.5" width="131" height="28" rx="2" ry="2" fill="#fa9f6f"/>
</svg>