<svg xmlns="http://www.w3.org/2000/svg" width="80" height="80" viewBox="0 0 80 80">
  <defs>
    <style>
      .cls-1 {
        fill: #d4d4d4;
        fill-rule: evenodd;
      }
    </style>
  </defs>
  <path id="instagram" class="cls-1" d="M586.534,6491.99H537.449a15.48,15.48,0,0,0-15.463,15.46v49.09a15.482,15.482,0,0,0,15.463,15.47h49.088A15.483,15.483,0,0,0,602,6556.54v-49.09A15.482,15.482,0,0,0,586.534,6491.99Zm4.443,9.22h1.765v13.56l-13.518.04-0.046-13.56Zm-40.4,22.57a14.064,14.064,0,1,1-2.664,8.21A14.1,14.1,0,0,1,550.577,6523.78Zm43.622,32.76a7.671,7.671,0,0,1-7.668,7.66H537.446a7.667,7.667,0,0,1-7.668-7.66v-32.75h11.944a21.686,21.686,0,0,0-1.61,8.21,21.882,21.882,0,0,0,43.764,0,21.543,21.543,0,0,0-1.626-8.21H594.2v32.75Z" transform="translate(-522 -6492)"/>
</svg>
