<svg xmlns="http://www.w3.org/2000/svg" xml:space="preserve" style="enable-background:new 0 0 497.186 497.186" viewBox="0 0 497.186 497.186"><path fill="currentColor" d="M409.595 0H197.651c-22.646 0-41.048 18.415-41.048 41.044v13.968h-13.979c-22.63 0-41.064 18.398-41.064 41.043v14.016H87.613c-22.63 0-41.064 18.418-41.064 41.045v305.022c0 22.629 18.435 41.049 41.064 41.049h211.929c22.646 0 41.06-18.42 41.06-41.049v-13.979h13.968c22.63 0 41.059-18.417 41.059-41.063v-13.961h13.968c22.63 0 41.043-18.419 41.043-41.049V41.044C450.638 18.415 432.225 0 409.595 0zM307.832 456.138c0 4.569-3.727 8.278-8.29 8.278H87.613c-4.567 0-8.294-3.709-8.294-8.278V151.115c0-4.564 3.727-8.275 8.294-8.275h211.929c4.564 0 8.29 3.711 8.29 8.275v305.023zm55.01-55.042c0 4.584-3.705 8.295-8.273 8.295h-13.968V151.115c0-22.627-18.413-41.045-41.06-41.045H134.329V96.055c0-4.584 3.727-8.289 8.295-8.289h211.945c4.568 0 8.273 3.705 8.273 8.289v305.041zm55.027-55.01a8.275 8.275 0 0 1-8.273 8.273h-13.968V96.055c0-22.646-18.429-41.043-41.059-41.043H189.355V41.044c0-4.567 3.727-8.272 8.296-8.272h211.944a8.274 8.274 0 0 1 8.273 8.272v305.042z"/><path d="M137.842 228.396h85.237c9.042 0 16.398-7.334 16.398-16.393 0-9.051-7.356-16.376-16.398-16.376h-85.237c-9.036 0-16.394 7.325-16.394 16.376.001 9.06 7.358 16.393 16.394 16.393zm111.466 32.809H137.842c-9.036 0-16.394 7.336-16.394 16.391 0 9.054 7.357 16.379 16.394 16.379h111.466c9.058 0 16.377-7.325 16.377-16.379 0-9.055-7.319-16.391-16.377-16.391zm0 65.57H137.842c-9.036 0-16.394 7.319-16.394 16.377 0 9.053 7.357 16.377 16.394 16.377h111.466c9.058 0 16.377-7.324 16.377-16.377 0-9.057-7.319-16.377-16.377-16.377zm0 65.557H137.842c-9.036 0-16.394 7.318-16.394 16.375 0 9.054 7.357 16.394 16.394 16.394h111.466c9.058 0 16.377-7.34 16.377-16.394 0-9.057-7.319-16.375-16.377-16.375z"/></svg>