<svg id="Layer_1" xmlns="http://www.w3.org/2000/svg" viewBox="0 0 243.7 246"><style>.st0{fill:#d3d3d3}</style><path class="st0" d="M159.6 105.4c-.4 1-1.2 1.7-2.1 2.2-1.9 1.5-4.4 2.4-7 2.4h-57c-6.3 0-11.5-5.2-11.5-11.6V54c0-5.5 4.5-10 9.9-10h58.6c6.3 0 11.5 5.2 11.5 11.6v42.9c0 2.5-.9 5-2.4 6.9zM158 55.5c0-4.2-3.4-7.6-7.5-7.6H91.9c-3.3 0-6 2.7-6 6v44.4c0 3 1.8 5.6 4.3 6.8l21.4-19c1.4-1.2 3.5-1.2 4.7.2l8 8.1 19.2-17.1c1.9-1.7 4.9-1.6 6.7.2l7.7 7.8V55.5zm-54.2 16.8c-4 0-7.2-3.3-7.2-7.3s3.2-7.3 7.2-7.3S111 61 111 65s-3.2 7.3-7.2 7.3zM2 187h149c1.1 0 2 .9 2 2v5c0 1.1-.9 2-2 2H2c-1.1 0-2-.9-2-2v-5c0-1.1.9-2 2-2zM2 201h99c1.1 0 2 .9 2 2v5c0 1.1-.9 2-2 2H2c-1.1 0-2-.9-2-2v-5c0-1.1.9-2 2-2z"/><path d="M2 227h49c1.1 0 2 .9 2 2v15c0 1.1-.9 2-2 2H2c-1.1 0-2-.9-2-2v-15c0-1.1.9-2 2-2z" fill="#f99e6f"/></svg>