<svg xmlns="http://www.w3.org/2000/svg" viewBox="0 0 173 102"><defs><style>.cls-2 { fill: currentColor; }</style></defs><path class="cls-2" d="M165 94V4H4v90h161m4 4H0V0h169v98z"/><path class="cls-2" d="M87 20h15v16H87zM87 41h15v16H87zM107 20h15v16h-15zM107 41h15v16h-15zM47 20h15v16H47zM47 41h15v16H47zM67 20h15v16H67zM87 1h15v14H87zM107 1h15v14h-15zM47 1h15v14H47zM67 1h15v14H67zM67 41h15v16H67zM87 62h15v16H87zM107 62h15v16h-15zM47 62h15v16H47zM67 62h15v16H67zM87 83h15v14H87zM107 83h15v14h-15zM47 83h15v14H47zM67 83h15v14H67z"/></svg>
