<svg xmlns="http://www.w3.org/2000/svg" viewBox="0 0 258 152"><path d="M254 74V4h-80v70h80m4 4h-88V0h88v78z" fill="#DBF1F9"/><path fill="#DBF1F9" d="M185 15h58v48h-58zM170 74V4H89v70h81m4 4H85V0h89v78z"/><path fill="#DBF1F9" d="M100 15h59v48h-59zM170 148V78H89v70h81m4 4H85V74h89v78z"/><path d="M54 43V19H20v24h34m4 4H16V15h42v32zM62 23h4v32h-4V23m4 28v4H24v-4h42m0 4v-4 4zm0 0h-4 4zM70 31h4v32h-4V31m4 28v4H32v-4h42m0 4v-4 4zm0 0h-4 4z" fill="#F99F6F"/><path fill="#DBF1F9" d="M100 89h59v48h-59z"/><path d="M40 19h9v14l-4.49-4L40 33V19z" fill="#F99F6F"/><path d="M254 148V78h-80v70h80m4 4h-88V74h88v78z" fill="#DBF1F9"/><path fill="#DBF1F9" d="M185 89h58v48h-58z"/><path fill="#FFF" d="M190 117h48v5h-48zM190 127h28v5h-28zM105 43h49v5h-49zM105 53h29v5h-29zM190 43h49v5h-49zM190 53h29v5h-29z"/><path d="M85 148V78H4v70h81m4 4H0V74h89v78z" fill="#DBF1F9"/><path d="M85 74V4H4v70h81m4 4H0V0h89v78z" fill="#F99F6F"/><path fill="#DBF1F9" d="M15 89h59v48H15z"/><path fill="#FFF" d="M20 117h49v5H20zM20 127h29v5H20zM105 117h49v5h-49zM105 127h29v5h-29z"/></svg>