<?xml version="1.0" encoding="utf-8"?>
<svg xmlns="http://www.w3.org/2000/svg"
	xmlns:xlink="http://www.w3.org/1999/xlink"
	width="256px" height="152px" viewBox="0 0 256 152">
<path fillRule="evenodd" d="M 252 148C 252 148 252 4 252 4 252 4 4 4 4 4 4 4 4 148 4 148 4 148 252 148 252 148M 256 152C 256 152-0 152-0 152-0 152-0 0-0 0-0 0 256 0 256 0 256 0 256 152 256 152 256 152 256 152 256 152Z" fill="rgb(219,241,249)"/>
<path fillRule="evenodd" d="M 24 129C 24 129 24 24 24 24 24 24 232 24 232 24 232 24 232 129 232 129 232 129 24 129 24 129ZM 222 34C 222 34 34 34 34 34 34 34 34 119 34 119 34 119 222 119 222 119 222 119 222 34 222 34Z" fill="rgb(219,241,249)"/>
</svg>