<svg id="mosaic_teaser" xmlns="http://www.w3.org/2000/svg" width="256" height="152"><defs><style>.cls-1,.cls-2{fill:#dcf1fa}.cls-2{fill-rule:evenodd}.cls-3{fill:#fff}.cls-4{fill:#fa9f6f}</style></defs><path id="Rectangle_797_copy_68" data-name="Rectangle 797 copy 68" class="cls-1" d="M183 15h58v48h-58z"/><path id="Rectangle_797_copy_68-2" data-name="Rectangle 797 copy 68" class="cls-2" d="M905 1997h172v78H905v-78zm4 4h164v70H909v-70z" transform="translate(-905 -1997)"/><path id="Rectangle_797_copy_72" data-name="Rectangle 797 copy 72" class="cls-2" d="M1073 1997h88v78h-88v-78zm4 4h80v70h-80v-70z" transform="translate(-905 -1997)"/><path id="Rectangle_797_copy_68-3" data-name="Rectangle 797 copy 68" class="cls-1" d="M15 15h142v48H15z"/><path id="Rectangle_797_copy_73" data-name="Rectangle 797 copy 73" class="cls-1" d="M15 89h58v48H15z"/><path id="Rectangle_797_copy_73-2" data-name="Rectangle 797 copy 73" class="cls-2" d="M989 2071h172v78H989v-78zm4 4h164v70H993v-70z" transform="translate(-905 -1997)"/><path id="Rectangle_797_copy_73-3" data-name="Rectangle 797 copy 73" class="cls-2" d="M905 2071h88v78h-88v-78zm4 4h80v70h-80v-70z" transform="translate(-905 -1997)"/><path id="Rectangle_797_copy_73-4" data-name="Rectangle 797 copy 73" class="cls-1" d="M99 89h142v48H99z"/><path id="Rectangle_797_copy_75" data-name="Rectangle 797 copy 75" class="cls-3" d="M22 22h49v5H22z"/><path id="Rectangle_797_copy_75-2" data-name="Rectangle 797 copy 75" class="cls-3" d="M22 32h29v5H22z"/><path id="Rectangle_797_copy_74" data-name="Rectangle 797 copy 74" class="cls-4" d="M22 50h35v7H22z"/><path id="Rectangle_797_copy_78" data-name="Rectangle 797 copy 78" class="cls-3" d="M107 96h49v5h-49z"/><path id="Rectangle_797_copy_78-2" data-name="Rectangle 797 copy 78" class="cls-3" d="M107 106h29v5h-29z"/><path id="Rectangle_797_copy_78-3" data-name="Rectangle 797 copy 78" class="cls-4" d="M107 124h35v7h-35z"/><path id="Rectangle_797_copy_76" data-name="Rectangle 797 copy 76" class="cls-3" d="M190 22h44v5h-44z"/><path id="Rectangle_797_copy_76-2" data-name="Rectangle 797 copy 76" class="cls-3" d="M190 32h29v5h-29z"/><path id="Rectangle_797_copy_76-3" data-name="Rectangle 797 copy 76" class="cls-4" d="M190 50h35v7h-35z"/><path id="Rectangle_797_copy_77" data-name="Rectangle 797 copy 77" class="cls-3" d="M22 96h44v5H22z"/><path id="Rectangle_797_copy_77-2" data-name="Rectangle 797 copy 77" class="cls-3" d="M22 106h29v5H22z"/><path id="Rectangle_797_copy_77-3" data-name="Rectangle 797 copy 77" class="cls-4" d="M22 124h35v7H22z"/></svg>