<svg id="Group_1" data-name="Group 1" xmlns="http://www.w3.org/2000/svg" width="256" height="151.515"><path id="Path_1" data-name="Path 1" d="M163 15h78v121.515h-78Z" fill="#dcf1fa" fill-rule="evenodd"/><path id="Path_2" data-name="Path 2" d="M0 151.515V0h152v151.515ZM148 4H4v143.515h144Z" fill="#dcf1fa" fill-rule="evenodd"/><path id="Path_3" data-name="Path 3" d="M148 151.515V0h108v151.515ZM252 4H152v143.515h100Z" fill="#dcf1fa" fill-rule="evenodd"/><path id="Path_4" data-name="Path 4" d="M15 15h122v121.515H15Z" fill="#dcf1fa" fill-rule="evenodd"/><path id="Path_5" data-name="Path 5" d="M22 32h69v5H22Z" fill="#fff" fill-rule="evenodd"/><path id="Path_6" data-name="Path 6" d="M22 42h49v5H22Z" fill="#fff" fill-rule="evenodd"/><path id="Path_7" data-name="Path 7" d="M22 58h45v15.828H22Z" fill="#fa9f6f" fill-rule="evenodd"/><path id="Path_8" data-name="Path 8" d="M170 32h54v5h-54Z" fill="#fff" fill-rule="evenodd"/><path id="Path_9" data-name="Path 9" d="M22 22h69v5H22Z" fill="#fff" fill-rule="evenodd"/><path id="Path_10" data-name="Path 10" d="M170 22h54v5h-54Z" fill="#fff" fill-rule="evenodd"/><path id="Path_11" data-name="Path 11" d="M170 42h39v5h-39Z" fill="#fff" fill-rule="evenodd"/><path id="Path_12" data-name="Path 12" d="M170 58h45v15.828h-45Z" fill="#fa9f6f" fill-rule="evenodd"/></svg>