<svg xmlns="http://www.w3.org/2000/svg" width="172.999" height="102.001"><g id="scene_3" transform="translate(0 .001)" fill="#d4d4d4"><path id="Path_11" fill="currentColor" data-name="Path 11" d="M0 0h173v102H0Zm169 4H4v94h165Z"/><path id="Subtraction_10" fill="currentColor" data-name="Subtraction 10" d="M0-273h-25v-19H0v19Zm-12.768-12.436a1.2 1.2 0 0 1 .822.273 1.056 1.056 0 0 1 .309.832 1.934 1.934 0 0 1-.14.724 3.255 3.255 0 0 1-.456.759c-.215.276-.67.77-1.353 1.469l-2.329 2.355v1.364h6.487v-1.65h-4.044v-.089l1.193-1.123a17.3 17.3 0 0 0 1.667-1.682 4.653 4.653 0 0 0 .7-1.153 3.212 3.212 0 0 0 .226-1.2 2.376 2.376 0 0 0-.368-1.308 2.463 2.463 0 0 0-1.035-.888 3.541 3.541 0 0 0-1.536-.318 5.085 5.085 0 0 0-1.193.13 4.2 4.2 0 0 0-.984.372 6.946 6.946 0 0 0-1.136.825l1.066 1.263a5.435 5.435 0 0 1 1.059-.7 2.372 2.372 0 0 1 1.046-.255Z" transform="translate(67.999 345)"/><path id="Subtraction_12" fill="currentColor" data-name="Subtraction 12" d="M-25-249v-43H0v43h-25Zm13.292-25.64-4.069 5.992v1.364h3.961v1.923H-9.9v-1.923h1.118v-1.524H-9.9v-5.833Zm-.108 5.833h-2.234l1.7-2.57a7.066 7.066 0 0 0 .564-1.016h.051c-.012.079-.029.363-.051.87s-.031.885-.031 1.142v1.573Z" transform="translate(127.999 321)"/><path id="Subtraction_11" fill="currentColor" data-name="Subtraction 11" d="M0-273h-25v-19H0v19Zm-15.548-6.964v1.669a6.758 6.758 0 0 0 2.678.5 4.5 4.5 0 0 0 2.774-.745 2.49 2.49 0 0 0 .972-2.085 1.92 1.92 0 0 0-.578-1.463 2.966 2.966 0 0 0-1.7-.682v-.039a2.736 2.736 0 0 0 1.479-.838 2.193 2.193 0 0 0 .526-1.479 1.879 1.879 0 0 0-.834-1.625 3.925 3.925 0 0 0-2.276-.584 5.064 5.064 0 0 0-3.028.914l.908 1.353a4.565 4.565 0 0 1 1.05-.527 3.028 3.028 0 0 1 .93-.152c.876 0 1.32.355 1.32 1.054a1.023 1.023 0 0 1-.5.968 3.35 3.35 0 0 1-1.578.283h-.717v1.5h.7a3.967 3.967 0 0 1 1.7.273.961.961 0 0 1 .533.927 1.218 1.218 0 0 1-.463 1.06 2.512 2.512 0 0 1-1.435.329 5.011 5.011 0 0 1-1.283-.171 6.1 6.1 0 0 1-1.187-.445Z" transform="translate(98 345)"/><path id="Subtraction_9" fill="currentColor" data-name="Subtraction 9" d="M30-273h-55v-19h55v19ZM1.75-285.011l-.032.962-.019.883v5.369h1.962v-9.28H2.048l-2.99 2.38.942 1.184 1.066-.858c.127-.1.348-.31.678-.639Z" transform="translate(67.999 321)"/></g></svg>