<svg xmlns="http://www.w3.org/2000/svg" width="172.999" height="102.001"><g id="scene_1" transform="translate(0 .001)" fill="#d4d4d4"><path id="Path_1" fill="currentColor" data-name="Path 1" d="M0 0h173v102H0Zm169 4H4v94h165Z"/><path id="Subtraction_3" fill="currentColor" data-name="Subtraction 3" d="M0-31h-25v-19H0v19Zm-15.5-7.045v1.669a6.781 6.781 0 0 0 2.679.5 4.493 4.493 0 0 0 2.774-.746 2.489 2.489 0 0 0 .971-2.085 1.919 1.919 0 0 0-.578-1.463 2.973 2.973 0 0 0-1.7-.683v-.038a2.736 2.736 0 0 0 1.479-.838 2.189 2.189 0 0 0 .527-1.479 1.881 1.881 0 0 0-.835-1.625 3.928 3.928 0 0 0-2.275-.584 5.065 5.065 0 0 0-3.028.914l.907 1.352a4.592 4.592 0 0 1 1.05-.527 3.039 3.039 0 0 1 .931-.152c.876 0 1.32.354 1.32 1.053a1.024 1.024 0 0 1-.5.968 3.354 3.354 0 0 1-1.578.283h-.717v1.5h.7a3.952 3.952 0 0 1 1.7.274.96.96 0 0 1 .534.926 1.216 1.216 0 0 1-.464 1.06 2.5 2.5 0 0 1-1.435.33 5.061 5.061 0 0 1-1.282-.171 6.114 6.114 0 0 1-1.18-.438Z" transform="translate(97.999 103)"/><path id="Subtraction_1" fill="currentColor" data-name="Subtraction 1" d="M0-7h-25v-43H0Zm-13.25-24.218-.031.962-.019.882V-24h1.961v-9.28h-1.612l-2.99 2.38.946 1.18 1.066-.857c.126-.1.348-.309.678-.639Z" transform="translate(67.999 79)"/><path id="Subtraction_4" fill="currentColor" data-name="Subtraction 4" d="M0-31h-25v-19H0v19Zm-11.708-14.28-4.069 5.992v1.365h3.961V-36H-9.9v-1.923h1.117v-1.524H-9.9v-5.834Zm-.108 5.834h-2.235l1.7-2.57a7.152 7.152 0 0 0 .564-1.016h.051c-.012.079-.029.363-.051.869s-.031.885-.031 1.143v1.573Z" transform="translate(128 103)"/><path id="Subtraction_2" fill="currentColor"  data-name="Subtraction 2" d="M30-31h-55v-19h55v19ZM2.67-42.777a1.2 1.2 0 0 1 .822.273 1.061 1.061 0 0 1 .308.832 1.943 1.943 0 0 1-.139.724 3.257 3.257 0 0 1-.457.759c-.212.273-.666.767-1.352 1.47l-2.33 2.355V-35h6.486v-1.651H1.966v-.089l1.193-1.123a17.162 17.162 0 0 0 1.666-1.682 4.646 4.646 0 0 0 .7-1.152 3.214 3.214 0 0 0 .225-1.2 2.367 2.367 0 0 0-.368-1.307 2.454 2.454 0 0 0-1.036-.896 3.553 3.553 0 0 0-1.536-.318 5.082 5.082 0 0 0-1.193.131 4.144 4.144 0 0 0-.984.372 6.936 6.936 0 0 0-1.133.827l1.063 1.263a5.484 5.484 0 0 1 1.06-.7 2.379 2.379 0 0 1 1.047-.252Z" transform="translate(97.999 79)"/></g></svg>