<svg id="mosaic_10" xmlns="http://www.w3.org/2000/svg" width="173" height="102" viewBox="0 0 173 102">
  <path id="Path_16" data-name="Path 16" d="M0,0H173V102H0ZM169,4H4V98H169Z" fill="#d4d4d4"/>
  <path id="Subtraction_13" data-name="Subtraction 13" d="M-2-393H-23v-15H-2Zm-11.25-10.011h0l-.031.962-.019.882v5.37h1.961v-9.28h-1.612l-2.99,2.38.946,1.18,1.066-.857c.129-.1.357-.319.678-.639Z" transform="translate(69.999 442)" fill="currentColor"/>
  <path id="Subtraction_16" data-name="Subtraction 16" d="M0-367H-25v-43H0Zm-11.709-25.64-4.069,5.992v1.364h3.961v1.923H-9.9v-1.923h1.118v-1.524H-9.9v-5.833Zm-.108,5.833H-14.05l1.7-2.57a7.062,7.062,0,0,0,.564-1.016h.051c-.012.079-.029.363-.051.87s-.031.884-.031,1.142v1.573Z" transform="translate(127.999 440)" fill="currentColor"/>
  <path id="Subtraction_14" data-name="Subtraction 14" d="M-4-393H-25v-15H-4Zm-10.376-10.57a1.2,1.2,0,0,1,.823.274,1.059,1.059,0,0,1,.308.832,1.95,1.95,0,0,1-.139.724,3.269,3.269,0,0,1-.457.758c-.211.273-.653.754-1.352,1.47l-2.33,2.355v1.364h6.487v-1.651H-15.08v-.088l1.193-1.124a16.962,16.962,0,0,0,1.666-1.682,4.647,4.647,0,0,0,.7-1.152,3.212,3.212,0,0,0,.225-1.2,2.369,2.369,0,0,0-.369-1.31,2.463,2.463,0,0,0-1.035-.889,3.545,3.545,0,0,0-1.535-.317,5.083,5.083,0,0,0-1.193.13,4.212,4.212,0,0,0-.985.372,7.02,7.02,0,0,0-1.136.825l1.066,1.263a5.484,5.484,0,0,1,1.06-.7A2.376,2.376,0,0,1-14.376-403.57Z" transform="translate(98 442)" fill="currentColor" />
  <path id="Subtraction_15" data-name="Subtraction 15" d="M26-393H-21v-15H26ZM-.941-397.965v1.67a6.775,6.775,0,0,0,2.679.5,4.5,4.5,0,0,0,2.774-.746,2.488,2.488,0,0,0,.971-2.084,1.92,1.92,0,0,0-.578-1.463,2.967,2.967,0,0,0-1.7-.682v-.039a2.736,2.736,0,0,0,1.479-.838,2.193,2.193,0,0,0,.527-1.479,1.883,1.883,0,0,0-.835-1.625,3.929,3.929,0,0,0-2.275-.583,5.07,5.07,0,0,0-3.029.914l.908,1.353a4.564,4.564,0,0,1,1.05-.527,3.038,3.038,0,0,1,.93-.152c.877,0,1.321.355,1.321,1.054a1.023,1.023,0,0,1-.5.967,3.354,3.354,0,0,1-1.578.283H.487v1.5h.7a3.967,3.967,0,0,1,1.7.273.961.961,0,0,1,.534.927,1.215,1.215,0,0,1-.464,1.059,2.5,2.5,0,0,1-1.435.33,5.021,5.021,0,0,1-1.283-.171,6.111,6.111,0,0,1-1.18-.441Z" transform="translate(67.999 462)" fill="#808181"/>
</svg>
