<svg xmlns="http://www.w3.org/2000/svg" width="172.999" height="102.001"><g id="scene_8" transform="translate(0 .001)" fill="#d4d4d4"><path id="Path_37" data-name="Path 37" d="M0 0h173v102H0Zm169 4H4v94h165Z"/><path id="Subtraction_32" fill="currentColor" data-name="Subtraction 32" d="M15-831h-40v-43h40v43Zm-23.46-18.4v1.669a6.773 6.773 0 0 0 2.678.5 4.492 4.492 0 0 0 2.774-.746 2.489 2.489 0 0 0 .971-2.085 1.919 1.919 0 0 0-.578-1.463 2.966 2.966 0 0 0-1.7-.682v-.039a2.736 2.736 0 0 0 1.479-.838 2.189 2.189 0 0 0 .527-1.479 1.881 1.881 0 0 0-.835-1.625 3.929 3.929 0 0 0-2.275-.583 5.065 5.065 0 0 0-3.028.914l.907 1.352a4.591 4.591 0 0 1 1.05-.526 3.038 3.038 0 0 1 .931-.152c.876 0 1.32.355 1.32 1.054a1.023 1.023 0 0 1-.5.967 3.353 3.353 0 0 1-1.578.283h-.717v1.5h.7a3.961 3.961 0 0 1 1.7.273.961.961 0 0 1 .534.927 1.215 1.215 0 0 1-.464 1.059 2.5 2.5 0 0 1-1.435.33 5.019 5.019 0 0 1-1.282-.171 6.078 6.078 0 0 1-1.179-.439Z" transform="translate(113 903)"/><path id="Subtraction_30" data-name="Subtraction 30" fill="currentColor" d="M15-855h-40v-19h40v19Zm-20.438-12.578-.031.962-.019.882v5.37h1.961v-9.28h-1.612l-2.99 2.38.946 1.18 1.067-.857c.126-.1.354-.316.677-.639Z" transform="translate(68 903)"/><path id="Subtraction_31" fill="currentColor" data-name="Subtraction 31" d="M15-855h-40v-19h40v19Zm-19.955-12.786a1.2 1.2 0 0 1 .823.274 1.059 1.059 0 0 1 .308.832 1.933 1.933 0 0 1-.14.724 3.231 3.231 0 0 1-.456.758c-.21.271-.665.766-1.353 1.47l-2.327 2.353v1.364h6.487v-1.651H-5.66v-.088l1.193-1.124a17.093 17.093 0 0 0 1.667-1.681 4.647 4.647 0 0 0 .7-1.152 3.229 3.229 0 0 0 .225-1.2 2.369 2.369 0 0 0-.368-1.308 2.463 2.463 0 0 0-1.035-.889 3.553 3.553 0 0 0-1.536-.317 5.082 5.082 0 0 0-1.193.13 4.207 4.207 0 0 0-.984.372 6.991 6.991 0 0 0-1.136.825l1.067 1.263a5.479 5.479 0 0 1 1.059-.7 2.384 2.384 0 0 1 1.046-.255Z" transform="translate(68 927)"/></g></svg>