<svg xmlns="http://www.w3.org/2000/svg" width="172.999" height="102.001"><g id="scene_2" transform="translate(0 .001)" fill="#d4d4d4"><path id="Path_6" data-name="Path 6" d="M0 0h173v102H0Zm169 4H4v94h165Z"/><path id="Subtraction_6" fill="currentColor" data-name="Subtraction 6" d="M0-149h-25v-19H0v19Zm-12.42-11.633a1.2 1.2 0 0 1 .823.273 1.059 1.059 0 0 1 .308.832 1.933 1.933 0 0 1-.14.724 3.219 3.219 0 0 1-.456.759c-.209.27-.665.765-1.353 1.47l-2.329 2.354v1.365h6.487v-1.651h-4.044v-.089l1.193-1.123a17.3 17.3 0 0 0 1.667-1.682 4.634 4.634 0 0 0 .7-1.152 3.214 3.214 0 0 0 .226-1.2 2.369 2.369 0 0 0-.368-1.308 2.463 2.463 0 0 0-1.035-.888 3.553 3.553 0 0 0-1.536-.318 5.038 5.038 0 0 0-1.193.13 4.2 4.2 0 0 0-.984.371 7.053 7.053 0 0 0-1.136.825l1.066 1.264a5.4 5.4 0 0 1 1.059-.7 2.384 2.384 0 0 1 1.046-.256Z" transform="translate(97.999 198)"/><path id="Subtraction_5" fill="currentColor" data-name="Subtraction 5" d="M0-125h-25v-43H0Zm-13.25-24.074-.031.962-.019.882v5.37h1.961v-9.281h-1.612l-2.99 2.38.946 1.181 1.066-.857c.129-.1.357-.318.678-.639Z" transform="translate(67.999 198)"/><path id="Subtraction_7" fill="currentColor" data-name="Subtraction 7" d="M0-149h-25v-19H0v19Zm-15.492-5.9v1.669a6.781 6.781 0 0 0 2.679.5 4.493 4.493 0 0 0 2.774-.746 2.489 2.489 0 0 0 .971-2.085 1.92 1.92 0 0 0-.578-1.463 2.974 2.974 0 0 0-1.7-.682v-.038a2.741 2.741 0 0 0 1.479-.838 2.189 2.189 0 0 0 .527-1.479 1.881 1.881 0 0 0-.835-1.625 3.923 3.923 0 0 0-2.275-.584 5.065 5.065 0 0 0-3.028.914l.907 1.352a4.592 4.592 0 0 1 1.05-.527 3.041 3.041 0 0 1 .931-.153c.876 0 1.32.355 1.32 1.054a1.024 1.024 0 0 1-.5.968 3.353 3.353 0 0 1-1.578.283h-.717v1.5h.7a3.967 3.967 0 0 1 1.7.273.963.963 0 0 1 .534.927 1.216 1.216 0 0 1-.464 1.06 2.5 2.5 0 0 1-1.435.33 5.022 5.022 0 0 1-1.282-.172 6.119 6.119 0 0 1-1.187-.444Z" transform="translate(128 198)"/><path id="Subtraction_8" data-name="Subtraction 8" fill="currentColor" d="M30-149h-55v-19h55v19ZM2.292-163.138l-4.069 5.992v1.365h3.961v1.923H4.1v-1.923h1.118v-1.519H4.1v-5.834H2.292Zm-.108 5.838H-.05l1.7-2.571a7.054 7.054 0 0 0 .565-1.015h.05a13.98 13.98 0 0 0-.05.869c-.021.511-.031.885-.031 1.143v1.573Z" transform="translate(97.999 222)"/></g></svg>