<svg xmlns="http://www.w3.org/2000/svg" width="172.999" height="102.001"><g id="scene_7" transform="translate(0 .001)" fill="#d4d4d4"><path id="Path_33" fill="currentColor" data-name="Path 33" d="M0 0h173v102H0Zm169 4H4v94h165Z"/><path id="Subtraction_27" fill="currentColor" data-name="Subtraction 27" d="M15-717h-40v-43h40v43Zm-20.438-23.578-.031.962-.019.882v5.37h1.961v-9.28h-1.612l-2.99 2.381.946 1.18 1.066-.857c.126-.1.354-.316.677-.639Z" transform="translate(68 789)"/><path id="Subtraction_28" fill="currentColor" data-name="Subtraction 28" d="M15-741h-40v-19h40v19Zm-20.375-12.786a1.2 1.2 0 0 1 .823.273 1.059 1.059 0 0 1 .308.832 1.943 1.943 0 0 1-.14.724 3.256 3.256 0 0 1-.457.759c-.212.273-.666.767-1.352 1.47l-2.33 2.354v1.365h6.487v-1.651H-6.08v-.089l1.193-1.123a17.21 17.21 0 0 0 1.667-1.682 4.647 4.647 0 0 0 .7-1.152 3.214 3.214 0 0 0 .225-1.2 2.373 2.373 0 0 0-.368-1.308 2.463 2.463 0 0 0-1.035-.888 3.544 3.544 0 0 0-1.535-.318 5.081 5.081 0 0 0-1.193.13 4.168 4.168 0 0 0-.985.372 7.015 7.015 0 0 0-1.136.824l1.067 1.264a5.381 5.381 0 0 1 1.06-.7 2.376 2.376 0 0 1 1.045-.256Z" transform="translate(112.999 789)"/><path id="Subtraction_29" data-name="Subtraction 29" fill="currentColor" d="M15-741h-40v-19h40v19Zm-23.459-6.64v1.669a6.759 6.759 0 0 0 2.678.5 4.5 4.5 0 0 0 2.774-.745 2.491 2.491 0 0 0 .971-2.085 1.92 1.92 0 0 0-.578-1.463 2.962 2.962 0 0 0-1.7-.682v-.038a2.753 2.753 0 0 0 1.48-.838 2.2 2.2 0 0 0 .527-1.48 1.878 1.878 0 0 0-.835-1.625 3.923 3.923 0 0 0-2.275-.584 5.064 5.064 0 0 0-3.028.914l.907 1.353a4.552 4.552 0 0 1 1.051-.527 3.056 3.056 0 0 1 .93-.152c.876 0 1.32.355 1.32 1.054a1.023 1.023 0 0 1-.5.968 3.342 3.342 0 0 1-1.577.283h-.717v1.5h.7a3.969 3.969 0 0 1 1.7.273.961.961 0 0 1 .533.927 1.218 1.218 0 0 1-.464 1.06 2.508 2.508 0 0 1-1.435.329 5.008 5.008 0 0 1-1.282-.171 6.02 6.02 0 0 1-1.18-.441Z" transform="translate(112.999 813)"/></g></svg>