<svg xmlns="http://www.w3.org/2000/svg" width="172.999" height="102.001"><g id="scene_6" transform="translate(0 .001)" fill="#d4d4d4"><path id="Path_21" data-name="Path 21" d="M0 0h173v102H0Zm169 4H4v94h165Z"/><path id="Subtraction_17" fill="currentColor" data-name="Subtraction 17" d="M-7-505h-18v-23h18v23Zm-9.437-14.011-.031.962-.019.883v5.369h1.961v-9.28h-1.612l-2.99 2.38.946 1.181 1.066-.858c.127-.1.348-.31.678-.639Z" transform="translate(67.999 558)"/><path id="Subtraction_19" fill="currentColor" data-name="Subtraction 19" d="M14-485h-39v-43h39v43Zm-22.46-18.425v1.669a6.773 6.773 0 0 0 2.678.5A4.493 4.493 0 0 0-3.007-502a2.489 2.489 0 0 0 .971-2.085 1.919 1.919 0 0 0-.578-1.462 2.962 2.962 0 0 0-1.7-.682v-.039a2.743 2.743 0 0 0 1.48-.838 2.193 2.193 0 0 0 .526-1.479 1.881 1.881 0 0 0-.835-1.625 3.928 3.928 0 0 0-2.275-.584 5.065 5.065 0 0 0-3.028.914l.907 1.352a4.581 4.581 0 0 1 1.051-.526 3.028 3.028 0 0 1 .93-.152c.876 0 1.32.354 1.32 1.053a1.024 1.024 0 0 1-.5.968 3.351 3.351 0 0 1-1.577.283h-.717v1.5h.7a3.965 3.965 0 0 1 1.7.274.96.96 0 0 1 .533.926 1.216 1.216 0 0 1-.464 1.06 2.5 2.5 0 0 1-1.435.33 5.007 5.007 0 0 1-1.282-.171 6.073 6.073 0 0 1-1.187-.445Z" transform="translate(90.999 558)"/><path id="Subtraction_20" fill="currentColor" data-name="Subtraction 20" d="M-7-513h-18v-15h18v15Zm-8.715-4.784v1.923h1.915v-1.923h1.117v-1.523H-13.8v-5.834h-1.809l-4.069 5.992v1.364Zm0-1.523h-2.235l1.7-2.571a7.106 7.106 0 0 0 .565-1.015h.05c-.012.08-.03.372-.05.869s-.031.868-.031 1.142v1.574Z" transform="translate(135 558)"/><path id="Subtraction_18" fill="currentColor" data-name="Subtraction 18" d="M-7-513h-18v-15h18v15Zm-9.023-10.569a1.2 1.2 0 0 1 .822.273 1.059 1.059 0 0 1 .308.832 1.927 1.927 0 0 1-.139.724 3.225 3.225 0 0 1-.457.759c-.215.277-.67.772-1.352 1.47l-2.329 2.355v1.364h6.487v-1.651h-4.044v-.089l1.193-1.123a17.164 17.164 0 0 0 1.666-1.682 4.621 4.621 0 0 0 .7-1.152 3.214 3.214 0 0 0 .226-1.2 2.38 2.38 0 0 0-.371-1.311 2.463 2.463 0 0 0-1.035-.888 3.552 3.552 0 0 0-1.536-.318 5.079 5.079 0 0 0-1.193.131 4.16 4.16 0 0 0-.984.372 6.975 6.975 0 0 0-1.137.824l1.066 1.264a5.4 5.4 0 0 1 1.06-.7 2.378 2.378 0 0 1 1.048-.255Z" transform="translate(67.999 586)"/><path id="Subtraction_21" fill="currentColor" data-name="Subtraction 21" d="M-7-505h-18v-23h18v23Zm-11.81-9.069v1.695a5.4 5.4 0 0 0 2.5.5 4.056 4.056 0 0 0 2.741-.838 3.022 3.022 0 0 0 .958-2.393 2.725 2.725 0 0 0-.8-2.069 3 3 0 0 0-2.142-.755 4.39 4.39 0 0 0-.958.088l-.222.045.171-1.822h3.314v-1.662h-5.034l-.349 4.729.781.419a5.266 5.266 0 0 1 .66-.143 4.676 4.676 0 0 1 .743-.067c1.234 0 1.86.472 1.86 1.4 0 .977-.6 1.472-1.8 1.472a5.223 5.223 0 0 1-1.264-.168 5.25 5.25 0 0 1-1.167-.435Z" transform="translate(134.999 578)"/></g></svg>