<svg xmlns="http://www.w3.org/2000/svg" width="172.999" height="102.001"><g id="scene_5" transform="translate(0 .001)" fill="#d4d4d4"><path id="Path_27" data-name="Path 27" d="M0 0h173v102H0Zm169 4H4v94h165Z"/><path id="Subtraction_25" fill="currentColor" data-name="Subtraction 25" d="M-7-623h-18v-23h18v23Zm-8.716-8.717v1.923h1.916v-1.923h1.117v-1.524H-13.8v-5.833h-1.809l-4.069 5.992v1.364Zm0-1.524h-2.234l1.7-2.57a7.106 7.106 0 0 0 .565-1.015h.051c-.013.074-.028.334-.051.869-.021.511-.031.885-.031 1.142v1.573Z" transform="translate(134.999 676)"/><path id="Subtraction_24" fill="currentColor" data-name="Subtraction 24" d="M14-603h-39v-43h39v43Zm-22.46-18.425v1.669a6.773 6.773 0 0 0 2.678.5A4.493 4.493 0 0 0-3.007-620a2.489 2.489 0 0 0 .971-2.085 1.918 1.918 0 0 0-.578-1.462 2.968 2.968 0 0 0-1.7-.683v-.038a2.743 2.743 0 0 0 1.48-.838 2.193 2.193 0 0 0 .526-1.479 1.881 1.881 0 0 0-.835-1.625 3.928 3.928 0 0 0-2.275-.584 5.065 5.065 0 0 0-3.028.914l.907 1.352a4.581 4.581 0 0 1 1.051-.526 3.028 3.028 0 0 1 .93-.152c.876 0 1.32.354 1.32 1.053a1.024 1.024 0 0 1-.5.968 3.35 3.35 0 0 1-1.577.283h-.717v1.5h.7a3.955 3.955 0 0 1 1.7.274.96.96 0 0 1 .533.926 1.216 1.216 0 0 1-.464 1.06 2.5 2.5 0 0 1-1.435.33 5.048 5.048 0 0 1-1.282-.171 6.072 6.072 0 0 1-1.179-.441Z" transform="translate(90.999 676)"/><path id="Subtraction_22" data-name="Subtraction 22" fill="currentColor" d="M-7-631h-18v-15h18v15Zm-9.437-10.01-.031.962-.019.882v5.37h1.961v-9.281h-1.614l-2.989 2.381.945 1.181 1.066-.857c.129-.1.357-.319.678-.639Z" transform="translate(68 676)"/><path id="Subtraction_26" fill="currentColor" data-name="Subtraction 26" d="M-7-631h-18v-15h18v15Zm-11.811-4.99v1.7a5.4 5.4 0 0 0 2.5.5 4.061 4.061 0 0 0 2.742-.838 3.022 3.022 0 0 0 .958-2.393 2.725 2.725 0 0 0-.8-2.069 3 3 0 0 0-2.142-.756 4.38 4.38 0 0 0-.959.089l-.222.044.171-1.822h3.314v-1.665h-5.034l-.349 4.729.781.419a5.464 5.464 0 0 1 .66-.142 4.575 4.575 0 0 1 .742-.067c1.234 0 1.86.472 1.86 1.4 0 .978-.6 1.473-1.8 1.473a5.225 5.225 0 0 1-1.264-.168 5.2 5.2 0 0 1-1.167-.436Z" transform="translate(135 704)"/><path id="Subtraction_23" data-name="Subtraction 23" fill="currentColor" d="M-7-623h-18v-23h18v23Zm-9.024-14.269a1.2 1.2 0 0 1 .824.269 1.061 1.061 0 0 1 .308.832 1.926 1.926 0 0 1-.139.724 3.227 3.227 0 0 1-.457.759c-.211.273-.654.754-1.352 1.47l-2.329 2.355v1.365h6.487v-1.651h-4.044v-.088l1.193-1.124a17.164 17.164 0 0 0 1.666-1.682 4.62 4.62 0 0 0 .7-1.152 3.211 3.211 0 0 0 .226-1.2 2.369 2.369 0 0 0-.369-1.308 2.45 2.45 0 0 0-1.034-.889 3.553 3.553 0 0 0-1.536-.317 5.085 5.085 0 0 0-1.193.13 4.2 4.2 0 0 0-.984.372 6.935 6.935 0 0 0-1.137.825l1.067 1.263a5.485 5.485 0 0 1 1.06-.7 2.378 2.378 0 0 1 1.043-.254Z" transform="translate(68 696)"/></g></svg>